<svg width="80" height="147" viewBox="0 0 80 147" fill="none" xmlns="http://www.w3.org/2000/svg">
<path d="M74.1077 59.3739C74.1077 57.7466 75.4268 56.4275 77.0541 56.4275C78.6813 56.4275 80.0005 57.7466 80.0005 59.3739C80.0005 61.0012 78.6813 62.3203 77.0541 62.3203C75.4268 62.3203 74.1077 61.0012 74.1077 59.3739Z" fill="#625FFF"/>
<path d="M74.1077 143.347C74.1077 141.72 75.4268 140.401 77.0541 140.401C78.6813 140.401 80.0005 141.72 80.0005 143.347C80.0005 144.974 78.6813 146.293 77.0541 146.293C75.4268 146.293 74.1077 144.974 74.1077 143.347Z" fill="#625FFF"/>
<path d="M74.1077 31.3827C74.1077 29.7554 75.4268 28.4363 77.0541 28.4363C78.6813 28.4363 80.0005 29.7554 80.0005 31.3827C80.0005 33.0099 78.6813 34.3291 77.0541 34.3291C75.4268 34.3291 74.1077 33.0099 74.1077 31.3827Z" fill="#625FFF"/>
<path d="M74.1077 115.356C74.1077 113.729 75.4268 112.409 77.0541 112.409C78.6813 112.409 80.0005 113.729 80.0005 115.356C80.0005 116.983 78.6813 118.302 77.0541 118.302C75.4268 118.302 74.1077 116.983 74.1077 115.356Z" fill="#625FFF"/>
<path d="M74.1077 3.39196C74.1077 1.7647 75.4268 0.445544 77.0541 0.445544C78.6813 0.445544 80.0005 1.7647 80.0005 3.39196C80.0005 5.01922 78.6813 6.33838 77.0541 6.33838C75.4268 6.33838 74.1077 5.01922 74.1077 3.39196Z" fill="#625FFF"/>
<path d="M74.1077 87.3651C74.1077 85.7378 75.4268 84.4187 77.0541 84.4187C78.6813 84.4187 80.0005 85.7378 80.0005 87.3651C80.0005 88.9924 78.6813 90.3115 77.0541 90.3115C75.4268 90.3115 74.1077 88.9924 74.1077 87.3651Z" fill="#625FFF"/>
<path d="M46.1164 59.3739C46.1164 57.7466 47.4356 56.4275 49.0629 56.4275C50.6901 56.4275 52.0093 57.7466 52.0093 59.3739C52.0093 61.0012 50.6901 62.3203 49.0629 62.3203C47.4356 62.3203 46.1164 61.0012 46.1164 59.3739Z" fill="#625FFF"/>
<path d="M46.1164 143.347C46.1164 141.72 47.4356 140.401 49.0629 140.401C50.6901 140.401 52.0093 141.72 52.0093 143.347C52.0093 144.974 50.6901 146.293 49.0629 146.293C47.4356 146.293 46.1164 144.974 46.1164 143.347Z" fill="#625FFF"/>
<path d="M46.1164 31.3827C46.1164 29.7554 47.4356 28.4363 49.0629 28.4363C50.6901 28.4363 52.0093 29.7554 52.0093 31.3827C52.0093 33.0099 50.6901 34.3291 49.0629 34.3291C47.4356 34.3291 46.1164 33.0099 46.1164 31.3827Z" fill="#625FFF"/>
<path d="M46.1164 115.356C46.1164 113.729 47.4356 112.409 49.0629 112.409C50.6901 112.409 52.0093 113.729 52.0093 115.356C52.0093 116.983 50.6901 118.302 49.0629 118.302C47.4356 118.302 46.1164 116.983 46.1164 115.356Z" fill="#625FFF"/>
<path d="M46.1164 3.39196C46.1164 1.7647 47.4356 0.445544 49.0629 0.445544C50.6901 0.445544 52.0093 1.7647 52.0093 3.39196C52.0093 5.01922 50.6901 6.33838 49.0629 6.33838C47.4356 6.33838 46.1164 5.01922 46.1164 3.39196Z" fill="#625FFF"/>
<path d="M46.1164 87.3651C46.1164 85.7378 47.4356 84.4187 49.0629 84.4187C50.6901 84.4187 52.0093 85.7378 52.0093 87.3651C52.0093 88.9924 50.6901 90.3115 49.0629 90.3115C47.4356 90.3115 46.1164 88.9924 46.1164 87.3651Z" fill="#625FFF"/>
<path d="M18.1257 59.3739C18.1257 57.7466 19.4449 56.4275 21.0721 56.4275C22.6994 56.4275 24.0186 57.7466 24.0186 59.3739C24.0186 61.0012 22.6994 62.3203 21.0721 62.3203C19.4449 62.3203 18.1257 61.0012 18.1257 59.3739Z" fill="#625FFF"/>
<path d="M18.1257 143.347C18.1257 141.72 19.4449 140.401 21.0721 140.401C22.6994 140.401 24.0186 141.72 24.0186 143.347C24.0186 144.974 22.6994 146.293 21.0721 146.293C19.4449 146.293 18.1257 144.974 18.1257 143.347Z" fill="#625FFF"/>
<path d="M18.1257 31.3827C18.1257 29.7554 19.4449 28.4363 21.0721 28.4363C22.6994 28.4363 24.0186 29.7554 24.0186 31.3827C24.0186 33.0099 22.6994 34.3291 21.0721 34.3291C19.4449 34.3291 18.1257 33.0099 18.1257 31.3827Z" fill="#625FFF"/>
<path d="M18.1257 115.356C18.1257 113.729 19.4449 112.409 21.0721 112.409C22.6994 112.409 24.0186 113.729 24.0186 115.356C24.0186 116.983 22.6994 118.302 21.0721 118.302C19.4449 118.302 18.1257 116.983 18.1257 115.356Z" fill="#625FFF"/>
<path d="M18.1257 3.39196C18.1257 1.7647 19.4449 0.445544 21.0721 0.445544C22.6994 0.445544 24.0186 1.7647 24.0186 3.39196C24.0186 5.01922 22.6994 6.33838 21.0721 6.33838C19.4449 6.33838 18.1257 5.01922 18.1257 3.39196Z" fill="#625FFF"/>
<path d="M18.1257 87.3651C18.1257 85.7378 19.4449 84.4187 21.0721 84.4187C22.6994 84.4187 24.0186 85.7378 24.0186 87.3651C24.0186 88.9924 22.6994 90.3115 21.0721 90.3115C19.4449 90.3115 18.1257 88.9924 18.1257 87.3651Z" fill="#625FFF"/>
</svg>
