<svg width="187" height="134" viewBox="0 0 187 134" fill="none" xmlns="http://www.w3.org/2000/svg">
<path d="M1.93457 132.365C3.06298 119.362 11.9099 106.013 26.3895 104.988C37.4724 104.204 48.9124 110.637 57.2238 116.999C58.5956 118.048 69.5976 127.058 62.4488 129.175C49.3767 133.047 39.6459 123.003 36.4562 111.243C31.717 93.7704 38.1482 76.5476 51.1705 64.3074C67.3252 49.1231 95.0142 35.4299 116.642 46.3254C126.727 51.406 131.65 58.3016 134.478 68.9572C136.73 77.44 137.92 88.0568 130.764 94.9681C118.988 106.343 104.974 95.1629 98.8367 83.8978C86.3987 61.0709 96.2349 29.3218 119.18 17.3548C139.307 6.85809 162.54 3.28878 184.933 1.89844" stroke="#0E0E0E" stroke-width="3" stroke-linecap="round"/>
</svg>
