<svg width="179" height="129" viewBox="0 0 179 129" fill="none" xmlns="http://www.w3.org/2000/svg">
<path d="M1.97461 126.642C3.05681 114.17 11.542 101.368 25.4294 100.385C36.0591 99.6324 47.0313 105.803 55.0028 111.904C56.3185 112.911 66.8706 121.552 60.0141 123.583C47.4766 127.297 38.1438 117.663 35.0845 106.384C30.539 89.6266 36.7072 73.1081 49.1971 61.3685C64.6911 46.8052 91.2478 33.6719 111.992 44.1219C121.665 48.9947 126.386 55.6083 129.099 65.8281C131.258 73.964 132.4 84.1466 125.537 90.7753C114.241 101.684 100.801 90.9622 94.9138 80.1578C82.9848 58.2644 92.4188 27.8136 114.426 16.336C133.73 6.26856 156.013 2.84521 177.49 1.51172" stroke="#FFD166" stroke-width="3" stroke-linecap="round"/>
</svg>
