<svg width="17" height="16" viewBox="0 0 17 16" fill="none" xmlns="http://www.w3.org/2000/svg">
<path d="M4.5293 1V2.78125M12.8418 1V2.78125M1.56055 13.4688V4.5625C1.56055 4.09008 1.74821 3.63702 2.08226 3.30297C2.41631 2.96892 2.86938 2.78125 3.3418 2.78125H14.0293C14.5017 2.78125 14.9548 2.96892 15.2888 3.30297C15.6229 3.63702 15.8105 4.09008 15.8105 4.5625V13.4688M1.56055 13.4688C1.56055 13.9412 1.74821 14.3942 2.08226 14.7283C2.41631 15.0623 2.86938 15.25 3.3418 15.25H14.0293C14.5017 15.25 14.9548 15.0623 15.2888 14.7283C15.6229 14.3942 15.8105 13.9412 15.8105 13.4688M1.56055 13.4688V7.53125C1.56055 7.05883 1.74821 6.60577 2.08226 6.27172C2.41631 5.93767 2.86938 5.75 3.3418 5.75H14.0293C14.5017 5.75 14.9548 5.93767 15.2888 6.27172C15.6229 6.60577 15.8105 7.05883 15.8105 7.53125V13.4688" stroke="#1CB365" stroke-width="1.5" stroke-linecap="round" stroke-linejoin="round"/>
</svg>
