<svg width="17" height="16" viewBox="0 0 17 16" fill="none" xmlns="http://www.w3.org/2000/svg">
<path d="M8.16211 3.33887V8.08887H11.7246M15.2871 8.08887C15.2871 9.02454 15.1028 9.95104 14.7448 10.8155C14.3867 11.6799 13.8619 12.4654 13.2002 13.127C12.5386 13.7886 11.7532 14.3134 10.8887 14.6715C10.0243 15.0296 9.09778 15.2139 8.16211 15.2139C7.22644 15.2139 6.29993 15.0296 5.43549 14.6715C4.57105 14.3134 3.78559 13.7886 3.12397 13.127C2.46236 12.4654 1.93753 11.6799 1.57947 10.8155C1.2214 9.95104 1.03711 9.02454 1.03711 8.08887C1.03711 6.1992 1.78778 4.38693 3.12397 3.05073C4.46017 1.71453 6.27244 0.963867 8.16211 0.963867C10.0518 0.963867 11.864 1.71453 13.2002 3.05073C14.5364 4.38693 15.2871 6.1992 15.2871 8.08887Z" stroke="#6125CE" stroke-width="1.5" stroke-linecap="round" stroke-linejoin="round"/>
</svg>
